<svg xmlns="http://www.w3.org/2000/svg" viewBox="0 0 500 500"><g id="freepik--paper-plane--inject-22"><polygon points="405.06 91.28 444.79 99.5 434.1 111.73 405.06 91.28" style="fill:#fff"></polygon><path d="M434.1,112.23a.47.47,0,0,1-.28-.09L404.77,91.68a.5.5,0,0,1,.39-.89L444.89,99a.53.53,0,0,1,.37.34.47.47,0,0,1-.1.48l-10.68,12.23A.48.48,0,0,1,434.1,112.23Zm-26.78-20L434,111.07l9.83-11.25Z" style="fill:#263238"></path><polygon points="405.06 91.28 418.39 128.65 430.14 115.57 405.06 91.28" style="fill:#fff"></polygon><path d="M418.39,129.15h-.1a.51.51,0,0,1-.37-.33L404.59,91.44a.5.5,0,0,1,.2-.59.5.5,0,0,1,.62.07l25.07,24.29a.49.49,0,0,1,0,.69L418.76,129A.47.47,0,0,1,418.39,129.15Zm-12.14-36,12.33,34.58,10.86-12.11Z" style="fill:#263238"></path><polygon points="434.1 111.73 433.2 121.14 430.14 115.57 405.06 91.28 434.1 111.73" style="fill:#fff"></polygon><path d="M433.2,121.64a.49.49,0,0,1-.44-.26l-3-5.5-25-24.25a.49.49,0,0,1,0-.67.49.49,0,0,1,.67-.09l29,20.46a.47.47,0,0,1,.21.45l-.9,9.41a.5.5,0,0,1-.4.44ZM410,95.37l20.47,19.84a.34.34,0,0,1,.09.12l2.29,4.15.72-7.5Z" style="fill:#263238"></path><polygon points="433.2 121.14 428.03 118.21 430.14 115.57 433.2 121.14" style="fill:#fff"></polygon><path d="M433.2,121.64a.54.54,0,0,1-.25-.06l-5.16-2.94a.49.49,0,0,1-.25-.34.48.48,0,0,1,.1-.4l2.11-2.64a.47.47,0,0,1,.43-.19.51.51,0,0,1,.39.26l3.07,5.57a.5.5,0,0,1-.09.6A.52.52,0,0,1,433.2,121.64Zm-4.41-3.58,3.12,1.78-1.85-3.37Z" style="fill:#263238"></path><path d="M35.87,423.72h0a.5.5,0,0,1-.47-.53c0-.07.1-1.83.54-5.08a.48.48,0,0,1,.56-.42.49.49,0,0,1,.43.56c-.43,3.2-.54,5-.54,5A.5.5,0,0,1,35.87,423.72Zm1.31-10h-.09a.48.48,0,0,1-.4-.57c.27-1.61.58-3.28.92-4.95a.5.5,0,0,1,1,.2c-.33,1.66-.64,3.32-.92,4.92A.49.49,0,0,1,37.18,413.71Zm2-9.83h-.12a.5.5,0,0,1-.37-.6c.36-1.55.75-3.18,1.19-4.88a.5.5,0,0,1,.61-.36.51.51,0,0,1,.36.61c-.44,1.69-.83,3.31-1.19,4.85A.5.5,0,0,1,39.17,403.88Zm2.49-9.7-.14,0a.49.49,0,0,1-.34-.62c.43-1.55.91-3.16,1.41-4.81a.51.51,0,0,1,.63-.33.5.5,0,0,1,.33.62c-.5,1.65-1,3.25-1.41,4.79A.51.51,0,0,1,41.66,394.18Zm2.93-9.57a.4.4,0,0,1-.15,0,.49.49,0,0,1-.32-.63q.77-2.32,1.63-4.74a.5.5,0,0,1,.63-.31.51.51,0,0,1,.31.64q-.86,2.41-1.62,4.72A.51.51,0,0,1,44.59,384.61Zm3.35-9.43a.39.39,0,0,1-.18,0,.49.49,0,0,1-.29-.64q.87-2.29,1.83-4.67a.5.5,0,1,1,.92.37c-.63,1.58-1.24,3.13-1.81,4.65A.52.52,0,0,1,47.94,375.18Zm3.73-9.29a.43.43,0,0,1-.19,0,.49.49,0,0,1-.27-.65c.65-1.51,1.31-3,2-4.59a.5.5,0,0,1,.66-.26.51.51,0,0,1,.25.67q-1,2.31-2,4.57A.49.49,0,0,1,51.67,365.89Zm4.1-9.12a.54.54,0,0,1-.21,0,.5.5,0,0,1-.24-.67c.7-1.48,1.43-3,2.18-4.5a.51.51,0,0,1,.67-.23.5.5,0,0,1,.23.67q-1.12,2.26-2.18,4.49A.49.49,0,0,1,55.77,356.77Zm4.45-9a.46.46,0,0,1-.23-.06.5.5,0,0,1-.22-.67c.77-1.46,1.55-2.94,2.36-4.42a.5.5,0,1,1,.88.48c-.81,1.48-1.59,2.94-2.35,4.4A.5.5,0,0,1,60.22,347.81ZM65,339a.47.47,0,0,1-.25-.07.49.49,0,0,1-.18-.68c.81-1.43,1.65-2.88,2.52-4.33a.49.49,0,0,1,.68-.17.48.48,0,0,1,.17.68c-.85,1.45-1.69,2.89-2.5,4.32A.52.52,0,0,1,65,339Zm5.11-8.6a.54.54,0,0,1-.27-.07.51.51,0,0,1-.16-.69q1.3-2.12,2.68-4.24a.49.49,0,0,1,.69-.14.5.5,0,0,1,.15.69q-1.36,2.11-2.67,4.21A.48.48,0,0,1,70.11,330.43Zm5.41-8.4a.5.5,0,0,1-.41-.78q1.38-2.06,2.82-4.14a.51.51,0,0,1,.7-.12.5.5,0,0,1,.12.69c-1,1.38-1.9,2.76-2.81,4.12A.51.51,0,0,1,75.52,322Zm5.71-8.21a.52.52,0,0,1-.29-.09.51.51,0,0,1-.11-.7c1-1.34,2-2.69,3-4a.51.51,0,0,1,.7-.1.49.49,0,0,1,.1.7c-1,1.35-2,2.69-3,4A.49.49,0,0,1,81.23,313.82Zm6-8a.45.45,0,0,1-.31-.11.5.5,0,0,1-.09-.7c1-1.3,2-2.61,3.11-3.93a.5.5,0,0,1,.78.63c-1.06,1.31-2.09,2.61-3.1,3.92A.51.51,0,0,1,87.23,305.82ZM93.49,298a.5.5,0,0,1-.38-.82c1.06-1.27,2.13-2.55,3.23-3.82a.51.51,0,0,1,.71-.05.49.49,0,0,1,0,.7c-1.09,1.27-2.17,2.54-3.22,3.81A.51.51,0,0,1,93.49,298Zm6.52-7.58a.54.54,0,0,1-.33-.12.51.51,0,0,1,0-.71c1.1-1.24,2.22-2.47,3.36-3.71a.5.5,0,1,1,.74.68q-1.71,1.85-3.35,3.7A.51.51,0,0,1,100,290.45Zm6.77-7.35a.51.51,0,0,1-.34-.14.5.5,0,0,1,0-.71q1.71-1.8,3.48-3.6a.5.5,0,1,1,.71.7c-1.17,1.2-2.33,2.4-3.46,3.59A.49.49,0,0,1,106.78,283.1Zm7-7.14a.54.54,0,0,1-.35-.14.5.5,0,0,1,0-.71q1.77-1.75,3.59-3.49a.51.51,0,0,1,.71,0,.5.5,0,0,1,0,.71q-1.81,1.74-3.57,3.48A.5.5,0,0,1,113.78,276Zm7.23-6.91a.5.5,0,0,1-.34-.86q1.81-1.69,3.69-3.38a.5.5,0,0,1,.71,0,.5.5,0,0,1,0,.7c-1.25,1.12-2.47,2.25-3.68,3.37A.5.5,0,0,1,121,269.05Zm7.43-6.68a.5.5,0,0,1-.33-.88c1.24-1.09,2.51-2.18,3.79-3.27a.5.5,0,1,1,.65.77c-1.28,1.08-2.54,2.17-3.79,3.25A.5.5,0,0,1,128.44,262.37Zm7.62-6.47a.51.51,0,0,1-.39-.18.5.5,0,0,1,.07-.7c1.28-1.06,2.58-2.1,3.89-3.15a.49.49,0,0,1,.7.07.51.51,0,0,1-.07.71c-1.31,1-2.61,2.09-3.88,3.14A.48.48,0,0,1,136.06,255.9Zm7.81-6.23a.47.47,0,0,1-.39-.2.5.5,0,0,1,.08-.7q2-1.53,4-3a.5.5,0,1,1,.6.8q-2,1.51-4,3A.51.51,0,0,1,143.87,249.67Zm8-6a.5.5,0,0,1-.29-.9c1.33-1,2.69-2,4.05-2.93a.51.51,0,0,1,.7.11.5.5,0,0,1-.12.7c-1.36,1-2.71,2-4,2.92A.47.47,0,0,1,151.85,243.65Zm8.15-5.8a.48.48,0,0,1-.41-.21.51.51,0,0,1,.12-.7c1.37-.94,2.74-1.88,4.14-2.82a.5.5,0,0,1,.56.83q-2.08,1.41-4.13,2.82A.48.48,0,0,1,160,237.85Zm8.29-5.57a.51.51,0,0,1-.42-.23.5.5,0,0,1,.15-.69q2.08-1.37,4.21-2.71a.5.5,0,0,1,.69.15.51.51,0,0,1-.16.69q-2.12,1.35-4.19,2.71A.57.57,0,0,1,168.29,232.28Zm8.44-5.36a.52.52,0,0,1-.43-.24.5.5,0,0,1,.17-.69q2.11-1.31,4.27-2.6a.5.5,0,0,1,.51.85l-4.26,2.6A.5.5,0,0,1,176.73,226.92Zm8.57-5.15a.51.51,0,0,1-.44-.25.49.49,0,0,1,.18-.68q2.15-1.26,4.34-2.5a.49.49,0,0,1,.68.18.51.51,0,0,1-.19.69q-2.18,1.23-4.32,2.49A.47.47,0,0,1,185.3,221.77Zm8.68-4.94a.51.51,0,0,1-.43-.26.49.49,0,0,1,.19-.68l4.39-2.4a.5.5,0,0,1,.48.88c-1.48.8-2.94,1.59-4.38,2.39A.45.45,0,0,1,194,216.83Zm8.81-4.74a.51.51,0,0,1-.45-.27.5.5,0,0,1,.21-.67c1.47-.77,3-1.54,4.45-2.3a.5.5,0,0,1,.67.22.49.49,0,0,1-.22.67c-1.49.76-3,1.53-4.43,2.29A.49.49,0,0,1,202.79,212.09Zm8.9-4.54a.5.5,0,0,1-.22-.94q2.24-1.11,4.5-2.2a.49.49,0,0,1,.66.23.49.49,0,0,1-.23.67l-4.48,2.19A.48.48,0,0,1,211.69,207.55Zm9-4.34a.48.48,0,0,1-.45-.28.5.5,0,0,1,.24-.67l4.54-2.1a.5.5,0,1,1,.41.91q-2.28,1-4.53,2.1A.52.52,0,0,1,220.7,203.21Zm9.09-4.15a.5.5,0,0,1-.2-.95c1.52-.68,3-1.34,4.58-2a.5.5,0,1,1,.4.92q-2.31,1-4.57,2A.52.52,0,0,1,229.79,199.06Zm9.18-4a.48.48,0,0,1-.46-.31.49.49,0,0,1,.27-.65q2.29-1,4.62-1.91a.49.49,0,0,1,.65.27.5.5,0,0,1-.27.65q-2.33.94-4.62,1.91A.43.43,0,0,1,239,195.1Zm9.25-3.78a.51.51,0,0,1-.46-.31.5.5,0,0,1,.28-.65c1.54-.62,3.09-1.22,4.66-1.83a.5.5,0,0,1,.64.29.49.49,0,0,1-.28.64c-1.56.61-3.11,1.21-4.65,1.83A.58.58,0,0,1,248.22,191.32Zm9.33-3.6a.52.52,0,0,1-.47-.33.5.5,0,0,1,.29-.64l4.69-1.74a.5.5,0,0,1,.64.3.49.49,0,0,1-.29.64q-2.37.86-4.69,1.74A.47.47,0,0,1,257.55,187.72Zm9.39-3.43a.49.49,0,0,1-.47-.34.48.48,0,0,1,.3-.63c1.56-.56,3.14-1.11,4.72-1.66a.5.5,0,0,1,.33,1q-2.37.81-4.72,1.65A.45.45,0,0,1,266.94,184.29Zm9.45-3.27a.5.5,0,0,1-.48-.34.49.49,0,0,1,.32-.63q2.36-.8,4.75-1.57a.5.5,0,0,1,.31,1L276.55,181A.47.47,0,0,1,276.39,181Zm9.5-3.1a.5.5,0,0,1-.15-1l4.77-1.49a.49.49,0,0,1,.63.33.5.5,0,0,1-.33.62L286,177.9A.39.39,0,0,1,285.89,177.92Zm9.55-2.94a.49.49,0,0,1-.47-.35.51.51,0,0,1,.33-.63l4.8-1.41a.5.5,0,0,1,.28,1L295.59,175A.39.39,0,0,1,295.44,175Zm9.6-2.78a.52.52,0,0,1-.48-.37.51.51,0,0,1,.35-.62l4.82-1.33a.5.5,0,1,1,.26,1l-4.81,1.34Zm9.65-2.64a.51.51,0,0,1-.49-.37.5.5,0,0,1,.36-.61c1.6-.43,3.22-.85,4.84-1.27a.5.5,0,0,1,.25,1l-4.83,1.26Zm9.68-2.49a.5.5,0,0,1-.12-1l4.86-1.19a.5.5,0,0,1,.23,1l-4.85,1.19Zm9.72-2.35a.5.5,0,0,1-.49-.39.5.5,0,0,1,.37-.6l4.88-1.12a.5.5,0,0,1,.22,1l-4.87,1.12Zm9.74-2.22a.48.48,0,0,1-.48-.39.49.49,0,0,1,.38-.59l4.89-1.06a.5.5,0,0,1,.59.38.51.51,0,0,1-.38.6l-4.89,1.05Zm9.78-2.07a.5.5,0,0,1-.1-1l4.91-1a.5.5,0,0,1,.58.4.48.48,0,0,1-.39.58l-4.9,1Zm9.81-2a.49.49,0,0,1-.49-.41.51.51,0,0,1,.39-.59l4.92-.92a.49.49,0,0,1,.58.4.5.5,0,0,1-.4.58c-1.64.3-3.28.61-4.91.93Zm9.83-1.83a.5.5,0,0,1-.09-1l4.93-.87a.5.5,0,0,1,.17,1l-4.92.86Zm9.85-1.7a.5.5,0,0,1-.08-1l4.94-.8a.5.5,0,1,1,.15,1l-4.93.81Zm9.87-1.59a.5.5,0,0,1-.07-1l4.94-.75a.5.5,0,1,1,.15,1c-1.66.24-3.3.49-4.94.75Zm9.89-1.47a.5.5,0,0,1-.07-1c1.64-.23,3.3-.47,5-.69a.5.5,0,1,1,.13,1c-1.66.22-3.31.46-4.95.69Zm9.91-1.35a.5.5,0,0,1-.07-1l5-.64a.5.5,0,0,1,.13,1c-1.66.2-3.31.42-5,.63Zm9.91-1.25a.5.5,0,0,1-.05-1l5-.58a.5.5,0,1,1,.12,1l-5,.59Zm9.94-1.14a.5.5,0,0,1-.06-1l5-.53a.5.5,0,0,1,.55.44.5.5,0,0,1-.45.55l-5,.53Zm9.94-1a.5.5,0,0,1-.05-1q2.49-.26,5-.48a.5.5,0,1,1,.1,1l-5,.48Zm10-.94a.5.5,0,0,1,0-1l5-.44a.5.5,0,1,1,.08,1l-5,.43Zm10-.85a.5.5,0,0,1-.5-.46.52.52,0,0,1,.46-.54l5-.38a.49.49,0,0,1,.53.46.5.5,0,0,1-.46.54l-5,.38Zm10-.75a.5.5,0,0,1-.5-.46.49.49,0,0,1,.47-.53l5-.34a.5.5,0,1,1,.06,1l-5,.34Zm10-.65a.51.51,0,0,1-.5-.47.5.5,0,0,1,.47-.53l5-.3a.49.49,0,0,1,.53.47.5.5,0,0,1-.47.53c-1.67.1-3.33.19-5,.3Z" style="fill:#263238"></path><path d="M262.6,414.9h-.82a.5.5,0,0,1,0-1h.82l4.17,0a.46.46,0,0,1,.51.49.5.5,0,0,1-.49.51Zm-5.82-.07h0q-2.5-.06-5-.18a.51.51,0,0,1-.48-.53.49.49,0,0,1,.52-.47c1.67.08,3.33.14,5,.18a.5.5,0,0,1,0,1Zm15-.11a.5.5,0,0,1,0-1c1.66-.07,3.32-.15,5-.26a.49.49,0,0,1,.53.47.49.49,0,0,1-.46.53c-1.67.11-3.34.19-5,.26Zm-25-.37h0c-1.67-.11-3.33-.25-5-.4a.51.51,0,0,1-.45-.55.52.52,0,0,1,.55-.45c1.65.15,3.31.29,5,.4a.51.51,0,0,1,.47.54A.5.5,0,0,1,246.79,414.35Zm35-.25a.51.51,0,0,1-.5-.46.5.5,0,0,1,.46-.54c1.66-.14,3.31-.3,5-.47a.5.5,0,1,1,.1,1c-1.66.18-3.32.34-5,.48Zm-44.94-.67h0c-1.67-.19-3.32-.4-5-.63a.5.5,0,0,1-.43-.56.51.51,0,0,1,.57-.43c1.64.23,3.3.44,4.95.63a.5.5,0,0,1-.06,1Zm54.89-.39a.5.5,0,0,1-.5-.43.49.49,0,0,1,.43-.56c1.65-.21,3.3-.44,4.94-.69a.5.5,0,0,1,.15,1c-1.65.25-3.3.48-5,.69Zm-64.8-1h-.08c-1.65-.26-3.3-.55-4.94-.85a.5.5,0,0,1,.18-1c1.64.3,3.28.58,4.92.85a.5.5,0,0,1-.08,1Zm74.68-.51a.5.5,0,0,1-.08-1c1.64-.29,3.27-.59,4.9-.91a.5.5,0,0,1,.2,1c-1.64.32-3.29.63-4.93.91Zm-84.52-1.3H217c-1.64-.35-3.27-.7-4.9-1.08a.5.5,0,0,1,.23-1c1.62.38,3.24.74,4.87,1.08a.5.5,0,0,1,.39.59A.51.51,0,0,1,217.07,410.26Zm94.34-.62a.5.5,0,0,1-.11-1c1.62-.36,3.25-.73,4.86-1.12a.51.51,0,0,1,.61.37.5.5,0,0,1-.37.6c-1.63.4-3.25.77-4.89,1.13ZM207.32,408l-.12,0c-1.62-.41-3.24-.85-4.84-1.3a.5.5,0,1,1,.27-1c1.6.46,3.2.89,4.82,1.3a.51.51,0,0,1,.36.61A.5.5,0,0,1,207.32,408Zm113.81-.7a.5.5,0,0,1-.49-.37.51.51,0,0,1,.36-.62c1.61-.42,3.21-.87,4.8-1.33a.5.5,0,0,1,.28,1c-1.6.47-3.21.91-4.83,1.34Zm-123.44-2-.14,0q-2.4-.75-4.78-1.54a.5.5,0,0,1,.32-.95q2.37.8,4.75,1.53a.51.51,0,0,1,.33.63A.5.5,0,0,1,197.69,405.27Zm133-.76a.51.51,0,0,1-.48-.35.51.51,0,0,1,.33-.63c1.59-.5,3.17-1,4.74-1.55a.51.51,0,0,1,.64.31.5.5,0,0,1-.32.64q-2.37.79-4.76,1.55Zm-142.52-2.42a.47.47,0,0,1-.17,0c-1.58-.57-3.14-1.16-4.7-1.77a.5.5,0,0,1,.37-.93c1.55.61,3.1,1.19,4.67,1.76a.5.5,0,0,1,.3.64A.52.52,0,0,1,188.21,402.09Zm152-.79a.5.5,0,0,1-.17-1q2.34-.85,4.67-1.77a.5.5,0,0,1,.36.94q-2.34.9-4.69,1.77A.51.51,0,0,1,340.2,401.3Zm-161.31-2.85a.43.43,0,0,1-.19,0c-1.55-.64-3.08-1.31-4.6-2a.5.5,0,0,1,.41-.92c1.51.69,3,1.35,4.57,2a.5.5,0,0,1,.27.66A.49.49,0,0,1,178.89,398.45Zm170.62-.79a.51.51,0,0,1-.46-.31.5.5,0,0,1,.27-.65q2.31-1,4.59-2a.51.51,0,0,1,.66.26.5.5,0,0,1-.26.66q-2.3,1-4.6,2A.71.71,0,0,1,349.51,397.66Zm-179.74-3.31a.54.54,0,0,1-.22,0c-1.51-.73-3-1.47-4.49-2.23a.5.5,0,1,1,.46-.89c1.48.76,3,1.49,4.46,2.21a.5.5,0,0,1-.21,1Zm188.91-.72a.5.5,0,0,1-.21-.95q2.26-1.05,4.51-2.14a.5.5,0,0,1,.44.9q-2.26,1.1-4.53,2.15A.52.52,0,0,1,358.68,393.63ZM160.87,389.8a.5.5,0,0,1-.24-.06c-1.47-.8-2.94-1.63-4.37-2.46a.5.5,0,0,1,.5-.86c1.43.82,2.89,1.64,4.35,2.44a.51.51,0,0,1,.2.68A.52.52,0,0,1,160.87,389.8Zm206.81-.54a.5.5,0,0,1-.23-.95q2.22-1.14,4.42-2.31a.51.51,0,0,1,.68.2.5.5,0,0,1-.21.68q-2.2,1.19-4.44,2.32A.46.46,0,0,1,367.68,389.26Zm-215.46-4.47a.5.5,0,0,1-.26-.08c-1.43-.88-2.85-1.78-4.23-2.68a.5.5,0,0,1-.15-.69.51.51,0,0,1,.7-.15c1.37.9,2.78,1.8,4.2,2.67a.5.5,0,0,1,.17.69A.52.52,0,0,1,152.22,384.79Zm224.27-.26a.53.53,0,0,1-.44-.26.51.51,0,0,1,.19-.68q2.17-1.23,4.33-2.49a.49.49,0,0,1,.68.17.51.51,0,0,1-.17.69q-2.16,1.28-4.35,2.5A.51.51,0,0,1,376.49,384.53Zm8.61-5.09a.5.5,0,0,1-.26-.93c1.41-.87,2.82-1.76,4.21-2.67a.5.5,0,0,1,.55.84c-1.4.91-2.82,1.8-4.23,2.68A.56.56,0,0,1,385.1,379.44Zm-241.24-.12a.51.51,0,0,1-.29-.08c-1.37-.95-2.74-1.93-4.08-2.91a.5.5,0,0,1,.59-.81c1.33,1,2.7,2,4.06,2.89a.5.5,0,0,1-.28.91ZM393.49,374a.48.48,0,0,1-.41-.21.5.5,0,0,1,.13-.7c1.37-.93,2.74-1.89,4.09-2.85a.5.5,0,0,1,.7.12.49.49,0,0,1-.12.69q-2,1.45-4.11,2.87A.48.48,0,0,1,393.49,374Zm-257.69-.57a.45.45,0,0,1-.3-.11c-1.32-1-2.64-2.07-3.91-3.12a.49.49,0,0,1-.07-.7.49.49,0,0,1,.7-.07c1.27,1,2.58,2.09,3.89,3.11a.49.49,0,0,1,.09.7A.53.53,0,0,1,135.8,373.42Zm265.83-5.23a.51.51,0,0,1-.4-.2.5.5,0,0,1,.1-.7q2-1.5,4-3a.5.5,0,0,1,.61.79c-1.31,1-2.64,2-4,3A.57.57,0,0,1,401.63,368.19Zm-273.54-1.11a.52.52,0,0,1-.33-.12c-1.25-1.09-2.51-2.21-3.73-3.33a.5.5,0,1,1,.68-.74c1.21,1.12,2.46,2.23,3.71,3.32a.49.49,0,0,1,.05.7A.48.48,0,0,1,128.09,367.08ZM409.49,362a.48.48,0,0,1-.38-.18.49.49,0,0,1,.06-.7q1.93-1.59,3.81-3.22a.5.5,0,1,1,.66.76q-1.89,1.63-3.83,3.23A.54.54,0,0,1,409.49,362Zm-288.74-1.68a.49.49,0,0,1-.35-.14c-1.2-1.16-2.39-2.35-3.53-3.53a.5.5,0,1,1,.72-.7c1.14,1.17,2.32,2.36,3.51,3.52a.49.49,0,0,1,0,.7A.51.51,0,0,1,120.75,360.33Zm296.3-4.86a.5.5,0,0,1-.33-.87q1.84-1.68,3.64-3.4a.5.5,0,0,1,.71,0,.49.49,0,0,1,0,.7q-1.8,1.74-3.66,3.42A.5.5,0,0,1,417.05,355.47Zm-303.26-2.3a.46.46,0,0,1-.36-.16c-1.13-1.23-2.26-2.48-3.34-3.74a.5.5,0,1,1,.75-.65c1.08,1.24,2.2,2.49,3.32,3.72a.48.48,0,0,1,0,.7A.47.47,0,0,1,113.79,353.17Zm310.49-4.61a.5.5,0,0,1-.36-.14.51.51,0,0,1,0-.71q1.75-1.77,3.47-3.58a.5.5,0,0,1,.73.68q-1.72,1.83-3.49,3.61A.52.52,0,0,1,424.28,348.56Zm-317-2.94a.5.5,0,0,1-.39-.18c-1-1.28-2.1-2.6-3.12-3.93a.5.5,0,0,1,.79-.61c1,1.32,2.06,2.63,3.1,3.9a.5.5,0,0,1-.07.71A.51.51,0,0,1,107.25,345.62Zm323.88-4.33a.46.46,0,0,1-.33-.13.5.5,0,0,1,0-.71c1.1-1.23,2.2-2.5,3.27-3.76a.5.5,0,0,1,.76.64c-1.07,1.27-2.18,2.55-3.29,3.79A.5.5,0,0,1,431.13,341.29Zm-330-3.58a.48.48,0,0,1-.4-.21c-1-1.35-2-2.73-2.89-4.09a.5.5,0,0,1,.13-.7.49.49,0,0,1,.69.13c.93,1.36,1.9,2.73,2.88,4.07a.51.51,0,0,1-.11.7A.49.49,0,0,1,101.14,337.71Zm336.44-4.06a.5.5,0,0,1-.39-.82c1-1.3,2.06-2.62,3.05-3.94a.5.5,0,0,1,.7-.1.51.51,0,0,1,.1.7c-1,1.32-2,2.66-3.07,4A.51.51,0,0,1,437.58,333.65ZM95.49,329.46a.51.51,0,0,1-.42-.23c-.9-1.41-1.8-2.84-2.65-4.25a.5.5,0,0,1,.17-.69.49.49,0,0,1,.68.17c.85,1.41,1.74,2.83,2.64,4.23a.49.49,0,0,1-.15.69A.5.5,0,0,1,95.49,329.46Zm348.09-3.81a.52.52,0,0,1-.29-.09.51.51,0,0,1-.12-.7c1-1.36,1.91-2.74,2.82-4.11a.5.5,0,1,1,.83.55c-.91,1.38-1.86,2.77-2.83,4.14A.49.49,0,0,1,443.58,325.65ZM90.32,320.9a.51.51,0,0,1-.44-.25l-.68-1.21q-.89-1.57-1.74-3.18a.49.49,0,0,1,.2-.67.5.5,0,0,1,.68.2c.57,1.07,1.15,2.12,1.73,3.17l.68,1.2a.49.49,0,0,1-.18.68A.57.57,0,0,1,90.32,320.9Zm358.79-3.59a.52.52,0,0,1-.27-.07.51.51,0,0,1-.16-.69c.88-1.43,1.74-2.87,2.56-4.28a.49.49,0,0,1,.68-.18.5.5,0,0,1,.19.68c-.83,1.42-1.69,2.87-2.58,4.3A.48.48,0,0,1,449.11,317.31Zm-363.5-5.22a.51.51,0,0,1-.45-.28c-.77-1.55-1.49-3.08-2.14-4.55a.5.5,0,0,1,.26-.66.51.51,0,0,1,.66.26c.64,1.45,1.36,3,2.12,4.5a.5.5,0,0,1-.23.67A.46.46,0,0,1,85.61,312.09Zm368.5-3.44a.53.53,0,0,1-.24-.06.51.51,0,0,1-.2-.68c.78-1.47,1.55-3,2.28-4.43a.51.51,0,0,1,.67-.22.5.5,0,0,1,.23.67c-.74,1.48-1.51,3-2.3,4.45A.5.5,0,0,1,454.11,308.65ZM81.56,302.94a.48.48,0,0,1-.46-.32c-.62-1.6-1.18-3.2-1.67-4.75a.5.5,0,0,1,1-.3c.48,1.53,1,3.11,1.64,4.69a.5.5,0,0,1-.29.65Zm377-3.24a.54.54,0,0,1-.21-.05.51.51,0,0,1-.25-.66c.69-1.5,1.36-3,2-4.56a.5.5,0,1,1,.92.39c-.65,1.54-1.33,3.08-2,4.58A.49.49,0,0,1,458.56,299.7Zm-380-6.29a.51.51,0,0,1-.49-.39q-.27-1.17-.51-2.34a.5.5,0,1,1,1-.19c.15.77.31,1.54.49,2.3a.49.49,0,0,1-.37.6Zm383.87-2.92a.39.39,0,0,1-.18,0,.5.5,0,0,1-.29-.64c.6-1.56,1.19-3.13,1.73-4.68a.5.5,0,0,1,1,.34c-.56,1.55-1.14,3.14-1.74,4.7A.51.51,0,0,1,462.45,290.49Zm3.33-9.43-.15,0a.5.5,0,0,1-.32-.63c.5-1.58,1-3.18,1.45-4.77a.5.5,0,1,1,1,.28c-.46,1.6-1,3.21-1.46,4.79A.5.5,0,0,1,465.78,281.06Zm2.78-9.6-.12,0a.5.5,0,0,1-.36-.61c.41-1.59.8-3.22,1.18-4.84a.49.49,0,0,1,.59-.38.5.5,0,0,1,.38.6c-.37,1.63-.77,3.27-1.18,4.87A.51.51,0,0,1,468.56,271.46Zm2.23-9.75h-.1a.49.49,0,0,1-.39-.59c.32-1.6.62-3.25.9-4.9a.5.5,0,0,1,1,.17c-.28,1.66-.59,3.32-.91,4.93A.51.51,0,0,1,470.79,261.71Zm1.68-9.86h-.07a.5.5,0,0,1-.42-.57c.23-1.64.45-3.29.64-4.94a.5.5,0,1,1,1,.11c-.19,1.66-.41,3.32-.64,5A.51.51,0,0,1,472.47,251.85Zm1.16-9.93h-.05a.5.5,0,0,1-.45-.54c.15-1.66.27-3.32.38-5a.47.47,0,0,1,.53-.46.49.49,0,0,1,.46.53c-.1,1.66-.23,3.33-.38,5A.49.49,0,0,1,473.63,241.92Zm.63-10h0a.5.5,0,0,1-.48-.52q.09-2.49.12-5a.47.47,0,0,1,.5-.5.51.51,0,0,1,.5.51q0,2.51-.12,5A.51.51,0,0,1,474.26,231.94Zm.11-10a.51.51,0,0,1-.5-.49c0-1.66-.06-3.32-.13-5a.5.5,0,0,1,.48-.51.49.49,0,0,1,.52.48c.07,1.67.11,3.34.13,5a.49.49,0,0,1-.49.5ZM474,212a.5.5,0,0,1-.5-.47c-.1-1.66-.23-3.31-.37-5a.49.49,0,0,1,.45-.54.49.49,0,0,1,.54.45c.15,1.67.27,3.33.38,5a.5.5,0,0,1-.47.53Zm-.88-10a.5.5,0,0,1-.49-.44c-.19-1.66-.39-3.31-.62-5a.5.5,0,0,1,.43-.57.51.51,0,0,1,.56.43c.23,1.66.43,3.31.62,5a.5.5,0,0,1-.44.55Zm-1.35-9.91a.5.5,0,0,1-.5-.42c-.26-1.64-.55-3.28-.85-4.91a.5.5,0,0,1,1-.18c.31,1.64.6,3.28.86,4.93a.5.5,0,0,1-.41.58Zm-1.84-9.83a.49.49,0,0,1-.48-.39l-.1-.43c-.31-1.48-.65-3-1-4.43a.51.51,0,0,1,.37-.61.5.5,0,0,1,.6.37c.36,1.47.71,3,1,4.46l.09.43a.49.49,0,0,1-.38.59Zm-2.37-9.71a.5.5,0,0,1-.48-.37c-.46-1.62-.94-3.23-1.44-4.77a.51.51,0,0,1,.33-.63.51.51,0,0,1,.63.33c.5,1.55,1,3.17,1.44,4.8a.5.5,0,0,1-.35.62ZM464.49,163a.51.51,0,0,1-.47-.33c-.57-1.58-1.18-3.14-1.8-4.64a.5.5,0,0,1,.27-.66.51.51,0,0,1,.65.27c.63,1.52,1.24,3.1,1.82,4.68a.52.52,0,0,1-.3.65A.47.47,0,0,1,464.49,163Zm-3.83-9.24a.48.48,0,0,1-.45-.28c-.72-1.53-1.47-3-2.23-4.45a.5.5,0,0,1,.21-.68.49.49,0,0,1,.67.21c.77,1.44,1.53,2.95,2.25,4.49a.49.49,0,0,1-.24.66A.41.41,0,0,1,460.66,153.78ZM456,145a.52.52,0,0,1-.43-.24c-.86-1.44-1.77-2.84-2.69-4.18a.5.5,0,0,1,.12-.69.5.5,0,0,1,.7.13c.93,1.35,1.85,2.77,2.73,4.22a.51.51,0,0,1-.43.76Zm-5.68-8.22a.49.49,0,0,1-.39-.19c-1-1.31-2.11-2.58-3.21-3.79a.5.5,0,1,1,.74-.67c1.11,1.22,2.21,2.52,3.25,3.84a.49.49,0,0,1-.08.7A.51.51,0,0,1,450.27,136.75Zm-6.72-7.39a.52.52,0,0,1-.35-.14c-1.2-1.15-2.45-2.25-3.72-3.28a.52.52,0,0,1-.07-.71.5.5,0,0,1,.7-.07c1.29,1,2.56,2.17,3.78,3.33a.5.5,0,0,1,0,.71A.52.52,0,0,1,443.55,129.36Z" style="fill:#263238"></path></g></svg>